<mxfile host="65bd71144e" modified="2023-07-14T15:32:49.416Z" agent="Mozilla/5.0 (X11; Linux x86_64) AppleWebKit/537.36 (KHTML, like Gecko) Code/1.80.0 Chrome/108.0.5359.215 Electron/22.3.14 Safari/537.36" etag="oh01mMCKZAduU5h98iSo" version="21.6.2" type="embed" pages="2">
    <diagram id="uZBdi8j3Q2KFLS6FdFYn" name="water-cycle">
        <mxGraphModel dx="237" dy="146" grid="1" gridSize="10" guides="1" tooltips="1" connect="1" arrows="1" fold="1" page="1" pageScale="1" pageWidth="850" pageHeight="1100" math="0" shadow="0">
            <root>
                <mxCell id="0"/>
                <mxCell id="1" parent="0"/>
                <mxCell id="SlHaAS4gD0f9uBEAn6q1-1" value="&lt;font color=&quot;#000000&quot;&gt;Reservoir&lt;/font&gt;" style="text;html=1;align=center;verticalAlign=middle;whiteSpace=wrap;rounded=1;fontSize=16;perimeterSpacing=0;fontStyle=0;fillColor=default;" parent="1" vertex="1">
                    <mxGeometry x="230" y="300" width="100" height="30" as="geometry"/>
                </mxCell>
                <mxCell id="SlHaAS4gD0f9uBEAn6q1-2" value="" style="endArrow=classic;html=1;rounded=0;fontSize=16;fontColor=#000000;fillColor=#ffe6cc;strokeColor=#FFCE9F;strokeWidth=6;entryX=0;entryY=0.5;entryDx=0;entryDy=0;exitX=1;exitY=0.5;exitDx=0;exitDy=0;" parent="1" source="5" target="13" edge="1">
                    <mxGeometry width="50" height="50" relative="1" as="geometry">
                        <mxPoint x="335" y="386.25" as="sourcePoint"/>
                        <mxPoint x="506" y="386.5" as="targetPoint"/>
                    </mxGeometry>
                </mxCell>
                <mxCell id="SlHaAS4gD0f9uBEAn6q1-3" value="&lt;font color=&quot;#000000&quot;&gt;Treatment Plant&lt;/font&gt;" style="text;html=1;align=center;verticalAlign=middle;whiteSpace=wrap;rounded=1;fontSize=16;perimeterSpacing=0;fontStyle=0;fillColor=default;" parent="1" vertex="1">
                    <mxGeometry x="472" y="300" width="130" height="30" as="geometry"/>
                </mxCell>
                <mxCell id="SlHaAS4gD0f9uBEAn6q1-5" value="&lt;span style=&quot;font-family: &amp;quot;helvetica&amp;quot; ; font-size: 16px ; font-style: normal ; font-weight: 400 ; letter-spacing: normal ; text-indent: 0px ; text-transform: none ; word-spacing: 0px ; display: inline ; float: none&quot;&gt;Abstraction&lt;br&gt;&lt;/span&gt;" style="text;whiteSpace=wrap;html=1;fontSize=17;fontFamily=Verdana;align=center;labelBackgroundColor=none;rounded=1;fillColor=default;" parent="1" vertex="1">
                    <mxGeometry x="360" y="376" width="90" height="30" as="geometry"/>
                </mxCell>
                <mxCell id="SlHaAS4gD0f9uBEAn6q1-10" value="" style="endArrow=classic;html=1;rounded=0;fontSize=16;fontColor=#000000;fillColor=#ffe6cc;strokeColor=#FFCE9F;strokeWidth=6;entryX=0;entryY=0.5;entryDx=0;entryDy=0;exitX=1;exitY=0.5;exitDx=0;exitDy=0;" parent="1" source="13" target="12" edge="1">
                    <mxGeometry width="50" height="50" relative="1" as="geometry">
                        <mxPoint x="593" y="386.5" as="sourcePoint"/>
                        <mxPoint x="760" y="385.9999999999999" as="targetPoint"/>
                    </mxGeometry>
                </mxCell>
                <mxCell id="SlHaAS4gD0f9uBEAn6q1-15" value="" style="endArrow=classic;html=1;rounded=0;fontSize=16;fontColor=#000000;fillColor=#ffe6cc;strokeColor=#FFCE9F;strokeWidth=6;exitX=0.5;exitY=1;exitDx=0;exitDy=0;entryX=0.5;entryY=0;entryDx=0;entryDy=0;" parent="1" source="12" target="11" edge="1">
                    <mxGeometry width="50" height="50" relative="1" as="geometry">
                        <mxPoint x="848" y="386" as="sourcePoint"/>
                        <mxPoint x="955.0300000000002" y="387.0200000000001" as="targetPoint"/>
                    </mxGeometry>
                </mxCell>
                <mxCell id="SlHaAS4gD0f9uBEAn6q1-20" value="&lt;span style=&quot;font-family: helvetica; font-size: 16px; font-style: normal; font-weight: 400; letter-spacing: normal; text-indent: 0px; text-transform: none; word-spacing: 0px; display: inline; float: none;&quot;&gt;Storage&lt;/span&gt;" style="text;whiteSpace=wrap;html=1;fontSize=17;fontFamily=Verdana;align=center;labelBackgroundColor=none;rounded=1;fillColor=default;" parent="1" vertex="1">
                    <mxGeometry x="628" y="376" width="70" height="30" as="geometry"/>
                </mxCell>
                <mxCell id="SlHaAS4gD0f9uBEAn6q1-21" value="" style="endArrow=classic;html=1;rounded=0;fontSize=16;fontColor=#000000;fillColor=#ffe6cc;strokeColor=#FFCE9F;strokeWidth=6;exitX=0;exitY=0.5;exitDx=0;exitDy=0;entryX=1;entryY=0.5;entryDx=0;entryDy=0;" parent="1" source="11" target="22" edge="1">
                    <mxGeometry width="50" height="50" relative="1" as="geometry">
                        <mxPoint x="950" y="545" as="sourcePoint"/>
                        <mxPoint x="820" y="690" as="targetPoint"/>
                    </mxGeometry>
                </mxCell>
                <mxCell id="SlHaAS4gD0f9uBEAn6q1-22" value="" style="endArrow=classic;html=1;rounded=0;fontSize=16;fontColor=#000000;fillColor=#ffe6cc;strokeColor=#FFCE9F;strokeWidth=6;exitX=0;exitY=0.5;exitDx=0;exitDy=0;entryX=1;entryY=0.5;entryDx=0;entryDy=0;" parent="1" source="22" target="10" edge="1">
                    <mxGeometry width="50" height="50" relative="1" as="geometry">
                        <mxPoint x="930" y="620" as="sourcePoint"/>
                        <mxPoint x="850" y="710" as="targetPoint"/>
                    </mxGeometry>
                </mxCell>
                <mxCell id="SlHaAS4gD0f9uBEAn6q1-23" value="&lt;span style=&quot;font-family: &amp;#34;helvetica&amp;#34; ; font-size: 16px ; font-style: normal ; font-weight: 400 ; letter-spacing: normal ; text-indent: 0px ; text-transform: none ; word-spacing: 0px ; display: inline ; float: none&quot;&gt;Consumption&lt;/span&gt;" style="text;whiteSpace=wrap;html=1;fontSize=17;fontFamily=Verdana;align=center;labelBackgroundColor=none;rounded=1;fillColor=default;" parent="1" vertex="1">
                    <mxGeometry x="740" y="662.58" width="100" height="30" as="geometry"/>
                </mxCell>
                <mxCell id="SlHaAS4gD0f9uBEAn6q1-28" value="&lt;span style=&quot;font-family: &amp;#34;helvetica&amp;#34; ; font-size: 16px ; font-style: normal ; font-weight: 400 ; letter-spacing: normal ; text-indent: 0px ; text-transform: none ; word-spacing: 0px ; display: inline ; float: none&quot;&gt;Depuration&lt;/span&gt;" style="text;whiteSpace=wrap;html=1;fontSize=17;fontFamily=Verdana;align=center;labelBackgroundColor=none;rounded=1;fillColor=default;" parent="1" vertex="1">
                    <mxGeometry x="233.31" y="662.58" width="102" height="30" as="geometry"/>
                </mxCell>
                <mxCell id="SlHaAS4gD0f9uBEAn6q1-29" value="&lt;font color=&quot;#000000&quot;&gt;Sewerage&lt;/font&gt;" style="text;html=1;align=center;verticalAlign=middle;whiteSpace=wrap;rounded=1;fontSize=16;perimeterSpacing=0;fontStyle=0;fillColor=default;" parent="1" vertex="1">
                    <mxGeometry x="490" y="662.58" width="100" height="30" as="geometry"/>
                </mxCell>
                <mxCell id="SlHaAS4gD0f9uBEAn6q1-30" value="" style="endArrow=classic;html=1;rounded=0;fontSize=16;fontColor=#000000;fillColor=#ffe6cc;strokeColor=#FFCE9F;strokeWidth=6;exitX=0.5;exitY=0;exitDx=0;exitDy=0;entryX=0.5;entryY=1;entryDx=0;entryDy=0;" parent="1" source="10" target="5" edge="1">
                    <mxGeometry width="50" height="50" relative="1" as="geometry">
                        <mxPoint x="230" y="594.5" as="sourcePoint"/>
                        <mxPoint x="70" y="595" as="targetPoint"/>
                    </mxGeometry>
                </mxCell>
                <mxCell id="SlHaAS4gD0f9uBEAn6q1-36" value="&lt;span style=&quot;font-family: &amp;#34;helvetica&amp;#34; ; font-size: 16px ; font-style: normal ; font-weight: 400 ; letter-spacing: normal ; text-indent: 0px ; text-transform: none ; word-spacing: 0px ; display: inline ; float: none&quot;&gt;Return&lt;/span&gt;" style="text;whiteSpace=wrap;html=1;fontSize=17;fontFamily=Verdana;align=center;labelBackgroundColor=none;rounded=1;fillColor=default;" parent="1" vertex="1">
                    <mxGeometry x="250.66" y="490" width="68.34" height="30" as="geometry"/>
                </mxCell>
                <mxCell id="8" value="" style="group" parent="1" vertex="1" connectable="0">
                    <mxGeometry x="230" y="340" width="103.31049289891399" height="100" as="geometry"/>
                </mxCell>
                <mxCell id="5" value="" style="rounded=1;whiteSpace=wrap;html=1;strokeWidth=3;strokeColor=#919191;" parent="8" vertex="1">
                    <mxGeometry x="1" width="100" height="100" as="geometry"/>
                </mxCell>
                <mxCell id="SlHaAS4gD0f9uBEAn6q1-38" value="" style="shape=image;html=1;verticalAlign=top;verticalLabelPosition=bottom;labelBackgroundColor=#ffffff;imageAspect=0;aspect=fixed;image=https://cdn0.iconfinder.com/data/icons/phosphor-regular-vol-4/256/tree-evergreen-128.png;imageBackground=none;" parent="8" vertex="1">
                    <mxGeometry y="6.693458646616477" width="43.30827067669173" height="43.30827067669173" as="geometry"/>
                </mxCell>
                <mxCell id="SlHaAS4gD0f9uBEAn6q1-39" value="" style="shape=image;html=1;verticalAlign=top;verticalLabelPosition=bottom;labelBackgroundColor=#ffffff;imageAspect=0;aspect=fixed;image=https://cdn0.iconfinder.com/data/icons/phosphor-regular-vol-4/256/tree-evergreen-128.png;imageBackground=none;" parent="8" vertex="1">
                    <mxGeometry x="28.914999999999964" y="13.459999999999923" width="43.30827067669173" height="43.30827067669173" as="geometry"/>
                </mxCell>
                <mxCell id="SlHaAS4gD0f9uBEAn6q1-40" value="" style="shape=image;html=1;verticalAlign=top;verticalLabelPosition=bottom;labelBackgroundColor=#ffffff;imageAspect=0;aspect=fixed;image=https://cdn0.iconfinder.com/data/icons/phosphor-regular-vol-4/256/tree-evergreen-128.png;imageBackground=none;" parent="8" vertex="1">
                    <mxGeometry x="60.00222222222226" y="6.6903759398495595" width="43.30827067669173" height="43.30827067669173" as="geometry"/>
                </mxCell>
                <mxCell id="SlHaAS4gD0f9uBEAn6q1-41" value="" style="shape=image;html=1;verticalAlign=top;verticalLabelPosition=bottom;labelBackgroundColor=#ffffff;imageAspect=0;aspect=fixed;image=https://cdn3.iconfinder.com/data/icons/summer-glyph-24-px/24/Ocean_sea_sea_waves_water_water_waves-128.png;imageBackground=none;" parent="8" vertex="1">
                    <mxGeometry x="9.027777777777771" y="46.618270676691736" width="43.30827067669173" height="43.30827067669173" as="geometry"/>
                </mxCell>
                <mxCell id="SlHaAS4gD0f9uBEAn6q1-42" value="" style="shape=image;html=1;verticalAlign=top;verticalLabelPosition=bottom;labelBackgroundColor=#ffffff;imageAspect=0;aspect=fixed;image=https://cdn3.iconfinder.com/data/icons/summer-glyph-24-px/24/Ocean_sea_sea_waves_water_water_waves-128.png;imageBackground=none;" parent="8" vertex="1">
                    <mxGeometry x="43.34666666666669" y="50.00172932330827" width="43.30827067669173" height="43.30827067669173" as="geometry"/>
                </mxCell>
                <mxCell id="14" value="" style="group" parent="1" vertex="1" connectable="0">
                    <mxGeometry x="490" y="339.99999999999994" width="100" height="100" as="geometry"/>
                </mxCell>
                <mxCell id="13" value="" style="rounded=1;whiteSpace=wrap;html=1;strokeWidth=3;strokeColor=#919191;" parent="14" vertex="1">
                    <mxGeometry width="100" height="100" as="geometry"/>
                </mxCell>
                <mxCell id="SlHaAS4gD0f9uBEAn6q1-45" value="" style="shape=waypoint;sketch=0;size=6;pointerEvents=1;points=[];fillColor=none;resizable=0;rotatable=0;perimeter=centerPerimeter;snapToPoint=1;labelBackgroundColor=none;fontColor=#000000;strokeWidth=0;" parent="14" vertex="1">
                    <mxGeometry x="26.9375" y="18.499754443913275" width="40" height="40" as="geometry"/>
                </mxCell>
                <mxCell id="SlHaAS4gD0f9uBEAn6q1-46" value="" style="shape=image;html=1;verticalAlign=top;verticalLabelPosition=bottom;labelBackgroundColor=#ffffff;imageAspect=0;aspect=fixed;image=https://cdn1.iconfinder.com/data/icons/ionicons-outline-vol-2/512/water-outline-128.png;sketch=0;" parent="14" vertex="1">
                    <mxGeometry x="10" y="10.00018796992481" width="80" height="80" as="geometry"/>
                </mxCell>
                <mxCell id="SlHaAS4gD0f9uBEAn6q1-48" value="" style="shape=waypoint;sketch=0;size=6;pointerEvents=1;points=[];fillColor=none;resizable=0;rotatable=0;perimeter=centerPerimeter;snapToPoint=1;labelBackgroundColor=none;fontColor=#000000;strokeWidth=0;" parent="14" vertex="1">
                    <mxGeometry x="41.046875" y="24.374754443913275" width="40" height="40" as="geometry"/>
                </mxCell>
                <mxCell id="SlHaAS4gD0f9uBEAn6q1-49" value="" style="shape=waypoint;sketch=0;size=6;pointerEvents=1;points=[];fillColor=none;resizable=0;rotatable=0;perimeter=centerPerimeter;snapToPoint=1;labelBackgroundColor=none;fontColor=#000000;strokeWidth=0;" parent="14" vertex="1">
                    <mxGeometry x="19.75" y="23.749754443913275" width="40" height="40" as="geometry"/>
                </mxCell>
                <mxCell id="SlHaAS4gD0f9uBEAn6q1-50" value="" style="shape=waypoint;sketch=0;size=6;pointerEvents=1;points=[];fillColor=none;resizable=0;rotatable=0;perimeter=centerPerimeter;snapToPoint=1;labelBackgroundColor=none;fontColor=#000000;strokeWidth=0;" parent="14" vertex="1">
                    <mxGeometry x="33.46875" y="12.249754443913275" width="40" height="40" as="geometry"/>
                </mxCell>
                <mxCell id="SlHaAS4gD0f9uBEAn6q1-51" value="" style="verticalLabelPosition=bottom;verticalAlign=top;html=1;shape=mxgraph.basic.4_point_star_2;dx=0.8;sketch=0;strokeWidth=2;" parent="14" vertex="1">
                    <mxGeometry x="23.125" y="59.37518796992481" width="17.71875" height="25.625" as="geometry"/>
                </mxCell>
                <mxCell id="SlHaAS4gD0f9uBEAn6q1-52" value="" style="verticalLabelPosition=bottom;verticalAlign=top;html=1;shape=mxgraph.basic.4_point_star_2;dx=0.8;sketch=0;strokeWidth=2;" parent="14" vertex="1">
                    <mxGeometry x="69.71875" y="52.50018796992481" width="17.71875" height="25.625" as="geometry"/>
                </mxCell>
                <mxCell id="15" value="" style="group" parent="1" vertex="1" connectable="0">
                    <mxGeometry x="740" y="340" width="100" height="100" as="geometry"/>
                </mxCell>
                <mxCell id="12" value="" style="rounded=1;whiteSpace=wrap;html=1;strokeWidth=3;strokeColor=#919191;" parent="15" vertex="1">
                    <mxGeometry width="100" height="100" as="geometry"/>
                </mxCell>
                <mxCell id="4" value="" style="group;strokeWidth=1;" parent="15" vertex="1" connectable="0">
                    <mxGeometry x="22" y="22.00018796992481" width="60" height="60" as="geometry"/>
                </mxCell>
                <mxCell id="SlHaAS4gD0f9uBEAn6q1-63" value="" style="strokeWidth=2;html=1;shape=mxgraph.flowchart.database;whiteSpace=wrap;labelBackgroundColor=#ffffff;sketch=0;fillStyle=solid;strokeColor=default;fontFamily=Helvetica;fontSize=12;fontColor=default;fillColor=default;" parent="4" vertex="1">
                    <mxGeometry width="60" height="60" as="geometry"/>
                </mxCell>
                <mxCell id="SlHaAS4gD0f9uBEAn6q1-64" value="" style="shape=image;html=1;verticalAlign=top;verticalLabelPosition=bottom;labelBackgroundColor=#ffffff;imageAspect=0;aspect=fixed;image=https://cdn1.iconfinder.com/data/icons/ionicons-outline-vol-2/512/water-outline-128.png;sketch=0;fillStyle=solid;strokeColor=default;strokeWidth=0;fontFamily=Helvetica;fontSize=12;fontColor=default;fillColor=default;imageBorder=none;" parent="4" vertex="1">
                    <mxGeometry x="10" y="20" width="40" height="40" as="geometry"/>
                </mxCell>
                <mxCell id="16" value="" style="group" parent="1" vertex="1" connectable="0">
                    <mxGeometry x="740" y="550" width="100" height="100" as="geometry"/>
                </mxCell>
                <mxCell id="11" value="" style="rounded=1;whiteSpace=wrap;html=1;strokeWidth=3;strokeColor=#919191;" parent="16" vertex="1">
                    <mxGeometry width="100" height="100" as="geometry"/>
                </mxCell>
                <mxCell id="SlHaAS4gD0f9uBEAn6q1-58" value="" style="html=1;verticalLabelPosition=bottom;align=center;labelBackgroundColor=#ffffff;verticalAlign=top;strokeWidth=3;strokeColor=#000000;shadow=0;dashed=0;shape=mxgraph.ios7.icons.home;sketch=0;fillStyle=solid;fontFamily=Helvetica;fontSize=12;fontColor=default;fillColor=default;" parent="16" vertex="1">
                    <mxGeometry x="21.5" y="20.00018796992481" width="57" height="60" as="geometry"/>
                </mxCell>
                <mxCell id="20" value="" style="group" parent="1" vertex="1" connectable="0">
                    <mxGeometry x="233.31" y="550" width="100" height="103" as="geometry"/>
                </mxCell>
                <mxCell id="10" value="" style="rounded=1;whiteSpace=wrap;html=1;strokeWidth=3;strokeColor=#919191;" parent="20" vertex="1">
                    <mxGeometry width="100" height="100" as="geometry"/>
                </mxCell>
                <mxCell id="SlHaAS4gD0f9uBEAn6q1-59" value="" style="group" parent="20" vertex="1" connectable="0">
                    <mxGeometry x="10" y="10" width="84" height="93" as="geometry"/>
                </mxCell>
                <mxCell id="SlHaAS4gD0f9uBEAn6q1-60" value="" style="shape=image;html=1;verticalAlign=top;verticalLabelPosition=bottom;labelBackgroundColor=#ffffff;imageAspect=0;aspect=fixed;image=https://cdn1.iconfinder.com/data/icons/ionicons-outline-vol-2/512/water-outline-128.png;sketch=0;fillStyle=solid;strokeColor=default;strokeWidth=0;fontFamily=Helvetica;fontSize=12;fontColor=default;fillColor=default;" parent="SlHaAS4gD0f9uBEAn6q1-59" vertex="1">
                    <mxGeometry width="84" height="84" as="geometry"/>
                </mxCell>
                <mxCell id="35" value="" style="shape=image;html=1;verticalAlign=top;verticalLabelPosition=bottom;labelBackgroundColor=#ffffff;imageAspect=0;aspect=fixed;image=https://cdn1.iconfinder.com/data/icons/material-audio-video/22/loop-128.png" vertex="1" parent="SlHaAS4gD0f9uBEAn6q1-59">
                    <mxGeometry x="25.579999999999984" y="28.079999999999934" width="30" height="30" as="geometry"/>
                </mxCell>
                <mxCell id="30" value="" style="group" parent="1" vertex="1" connectable="0">
                    <mxGeometry x="490" y="550" width="100" height="103" as="geometry"/>
                </mxCell>
                <mxCell id="21" value="" style="group" parent="30" vertex="1" connectable="0">
                    <mxGeometry width="100" height="103" as="geometry"/>
                </mxCell>
                <mxCell id="22" value="" style="rounded=1;whiteSpace=wrap;html=1;strokeWidth=3;strokeColor=#919191;" parent="21" vertex="1">
                    <mxGeometry width="100" height="100" as="geometry"/>
                </mxCell>
                <mxCell id="27" value="" style="group;aspect=fixed;" parent="30" vertex="1" connectable="0">
                    <mxGeometry x="12.809999999999945" y="18.5" width="74.38" height="70" as="geometry"/>
                </mxCell>
                <mxCell id="SlHaAS4gD0f9uBEAn6q1-76" value="" style="shape=ext;double=1;rounded=1;whiteSpace=wrap;html=1;labelBackgroundColor=#ffffff;fillStyle=auto;strokeWidth=3;fontFamily=Helvetica;fontSize=12;perimeterSpacing=0;shadow=0;glass=0;" parent="27" vertex="1">
                    <mxGeometry y="24.471544715447113" width="74.38" height="45.52845528455284" as="geometry"/>
                </mxCell>
                <mxCell id="SlHaAS4gD0f9uBEAn6q1-77" value="" style="shape=link;html=1;rounded=0;strokeWidth=5;fontFamily=Helvetica;fontSize=12;fontColor=default;" parent="27" edge="1">
                    <mxGeometry x="-1" y="191" width="100" relative="1" as="geometry">
                        <mxPoint x="13.016499999999933" y="64.30894308943093" as="sourcePoint"/>
                        <mxPoint x="13.016499999999933" y="30.162601626016183" as="targetPoint"/>
                        <mxPoint x="1" y="20" as="offset"/>
                    </mxGeometry>
                </mxCell>
                <mxCell id="SlHaAS4gD0f9uBEAn6q1-78" value="" style="shape=link;html=1;rounded=0;strokeWidth=5;fontFamily=Helvetica;fontSize=12;fontColor=default;" parent="27" edge="1">
                    <mxGeometry x="-1" y="191" width="100" relative="1" as="geometry">
                        <mxPoint x="25.413166666666598" y="64.30894308943093" as="sourcePoint"/>
                        <mxPoint x="25.413166666666598" y="30.162601626016183" as="targetPoint"/>
                        <mxPoint x="1" y="20" as="offset"/>
                    </mxGeometry>
                </mxCell>
                <mxCell id="SlHaAS4gD0f9uBEAn6q1-79" value="" style="shape=link;html=1;rounded=0;strokeWidth=5;fontFamily=Helvetica;fontSize=12;fontColor=default;" parent="27" edge="1">
                    <mxGeometry x="-1" y="191" width="100" relative="1" as="geometry">
                        <mxPoint x="37.809833333333266" y="64.30894308943093" as="sourcePoint"/>
                        <mxPoint x="37.809833333333266" y="30.162601626016183" as="targetPoint"/>
                        <mxPoint x="1" y="20" as="offset"/>
                    </mxGeometry>
                </mxCell>
                <mxCell id="SlHaAS4gD0f9uBEAn6q1-80" value="" style="shape=link;html=1;rounded=0;strokeWidth=5;fontFamily=Helvetica;fontSize=12;fontColor=default;" parent="27" edge="1">
                    <mxGeometry x="-1" y="191" width="100" relative="1" as="geometry">
                        <mxPoint x="50.20649999999992" y="64.30894308943093" as="sourcePoint"/>
                        <mxPoint x="50.20649999999992" y="30.162601626016183" as="targetPoint"/>
                        <mxPoint x="1" y="20" as="offset"/>
                    </mxGeometry>
                </mxCell>
                <mxCell id="SlHaAS4gD0f9uBEAn6q1-81" value="" style="shape=link;html=1;rounded=0;strokeWidth=5;fontFamily=Helvetica;fontSize=12;fontColor=default;" parent="27" edge="1">
                    <mxGeometry x="-1" y="191" width="100" relative="1" as="geometry">
                        <mxPoint x="62.60316666666659" y="64.30894308943093" as="sourcePoint"/>
                        <mxPoint x="62.60316666666659" y="30.162601626016183" as="targetPoint"/>
                        <mxPoint x="1" y="20" as="offset"/>
                    </mxGeometry>
                </mxCell>
                <mxCell id="29" value="" style="shape=image;html=1;verticalAlign=top;verticalLabelPosition=bottom;labelBackgroundColor=#ffffff;imageAspect=0;aspect=fixed;image=https://cdn1.iconfinder.com/data/icons/ionicons-outline-vol-2/512/water-outline-128.png;sketch=0;fillStyle=solid;strokeColor=default;strokeWidth=0;fontFamily=Helvetica;fontSize=12;fontColor=default;fillColor=default;imageBorder=none;" parent="27" vertex="1">
                    <mxGeometry x="17.190000000000055" y="-15.529812030075163" width="40" height="40" as="geometry"/>
                </mxCell>
                <mxCell id="31" value="&lt;font color=&quot;#000000&quot;&gt;Storage&lt;/font&gt;" style="text;html=1;align=center;verticalAlign=middle;whiteSpace=wrap;rounded=1;fontSize=16;perimeterSpacing=0;fontStyle=0;fillColor=default;" parent="1" vertex="1">
                    <mxGeometry x="740" y="300" width="100" height="30" as="geometry"/>
                </mxCell>
                <mxCell id="32" value="" style="endArrow=classic;html=1;rounded=0;fontSize=16;fontColor=#000000;fillColor=#ffe6cc;strokeColor=#FFCE9F;strokeWidth=6;exitX=0;exitY=1;exitDx=0;exitDy=0;entryX=1;entryY=0;entryDx=0;entryDy=0;" parent="1" source="12" target="22" edge="1">
                    <mxGeometry width="50" height="50" relative="1" as="geometry">
                        <mxPoint x="800" y="450" as="sourcePoint"/>
                        <mxPoint x="800" y="560" as="targetPoint"/>
                    </mxGeometry>
                </mxCell>
                <mxCell id="33" value="" style="endArrow=classic;html=1;rounded=0;fontSize=16;fontColor=#000000;fillColor=#ffe6cc;strokeColor=#FFCE9F;strokeWidth=6;exitX=0.5;exitY=1;exitDx=0;exitDy=0;entryX=0.5;entryY=0;entryDx=0;entryDy=0;" parent="1" source="13" target="22" edge="1">
                    <mxGeometry width="50" height="50" relative="1" as="geometry">
                        <mxPoint x="750" y="450" as="sourcePoint"/>
                        <mxPoint x="600" y="560" as="targetPoint"/>
                    </mxGeometry>
                </mxCell>
                <mxCell id="SlHaAS4gD0f9uBEAn6q1-4" value="&lt;span style=&quot;font-family: &amp;#34;helvetica&amp;#34; ; font-size: 16px ; font-style: normal ; font-weight: 400 ; letter-spacing: normal ; text-indent: 0px ; text-transform: none ; word-spacing: 0px ; display: inline ; float: none&quot;&gt;Distribution&lt;/span&gt;" style="text;whiteSpace=wrap;html=1;fontSize=17;fontFamily=Verdana;align=center;labelBackgroundColor=none;rounded=1;fillColor=default;" parent="1" vertex="1">
                    <mxGeometry x="739" y="475.15" width="100" height="30" as="geometry"/>
                </mxCell>
            </root>
        </mxGraphModel>
    </diagram>
    <diagram id="qugD-ClCj9LAYJ-hbDgu" name="smart-city">
        <mxGraphModel dx="1019" dy="-1574" grid="1" gridSize="10" guides="1" tooltips="1" connect="1" arrows="1" fold="1" page="1" pageScale="1" pageWidth="850" pageHeight="1100" math="0" shadow="0">
            <root>
                <mxCell id="0"/>
                <mxCell id="1" parent="0"/>
                <mxCell id="ugpPyibBAcFRLjeaAV24-1" value="" style="group;aspect=fixed;" vertex="1" connectable="0" parent="1">
                    <mxGeometry x="230" y="2360" width="390" height="390" as="geometry"/>
                </mxCell>
                <mxCell id="ugpPyibBAcFRLjeaAV24-2" value="&lt;span style=&quot;font-size: 30px;&quot;&gt;&lt;b style=&quot;font-size: 21px;&quot;&gt;&lt;font style=&quot;font-size: 21px;&quot; color=&quot;#1a1a1a&quot;&gt;SMART&lt;br&gt;CITY&lt;/font&gt;&lt;br&gt;&lt;/b&gt;&lt;/span&gt;" style="shape=hexagon;perimeter=hexagonPerimeter2;whiteSpace=wrap;html=1;shadow=0;labelBackgroundColor=none;strokeColor=#666666;fillColor=#f5f5f5;fontFamily=Helvetica;fontSize=23;fontColor=#333333;align=center;strokeWidth=3;" vertex="1" parent="ugpPyibBAcFRLjeaAV24-1">
                    <mxGeometry x="117.03947368421058" y="130.06578947368402" width="155.9210526315789" height="129.93421052631587" as="geometry"/>
                </mxCell>
                <mxCell id="ugpPyibBAcFRLjeaAV24-3" value="" style="triangle;whiteSpace=wrap;html=1;shadow=0;labelBackgroundColor=none;strokeColor=none;fillColor=#FFFFFF;fontFamily=Helvetica;fontSize=17;fontColor=#23445d;align=center;rotation=90;gradientColor=none;flipV=1;flipH=1;opacity=20;" vertex="1" parent="ugpPyibBAcFRLjeaAV24-1">
                    <mxGeometry x="57.49999999999999" y="139.00000000000009" width="35.99999999999999" height="76.00000000000004" as="geometry"/>
                </mxCell>
                <mxCell id="ugpPyibBAcFRLjeaAV24-4" value="&lt;font style=&quot;font-size: 18px;&quot;&gt;Public&lt;br&gt;Safety&lt;br&gt;&lt;/font&gt;" style="shape=hexagon;perimeter=hexagonPerimeter2;whiteSpace=wrap;html=1;shadow=0;labelBackgroundColor=none;strokeColor=#d6b656;fillColor=#fff2cc;fontFamily=Helvetica;fontSize=23;align=center;strokeWidth=3;" vertex="1" parent="ugpPyibBAcFRLjeaAV24-1">
                    <mxGeometry x="117.03947368421058" width="155.9210526315789" height="129.93421052631587" as="geometry"/>
                </mxCell>
                <mxCell id="ugpPyibBAcFRLjeaAV24-5" value="&lt;font style=&quot;font-size: 18px;&quot;&gt;Waste&lt;br&gt;Management&lt;/font&gt;" style="shape=hexagon;perimeter=hexagonPerimeter2;whiteSpace=wrap;html=1;shadow=0;labelBackgroundColor=none;strokeColor=#B85450;fillColor=#f8cecc;fontFamily=Helvetica;fontSize=23;align=center;strokeWidth=3;" vertex="1" parent="ugpPyibBAcFRLjeaAV24-1">
                    <mxGeometry x="234.07894736842107" y="64.76644736842108" width="155.9210526315789" height="129.93421052631587" as="geometry"/>
                </mxCell>
                <mxCell id="ugpPyibBAcFRLjeaAV24-6" value="&lt;font style=&quot;font-size: 18px;&quot;&gt;Smart&lt;br&gt;Parking&lt;br&gt;&lt;/font&gt;" style="shape=hexagon;perimeter=hexagonPerimeter2;whiteSpace=wrap;html=1;shadow=0;labelBackgroundColor=none;strokeColor=#9673a6;fillColor=#e1d5e7;fontFamily=Helvetica;fontSize=23;align=center;strokeWidth=3;" vertex="1" parent="ugpPyibBAcFRLjeaAV24-1">
                    <mxGeometry x="234.07894736842107" y="194.79934210526324" width="155.9210526315789" height="129.93421052631587" as="geometry"/>
                </mxCell>
                <mxCell id="ugpPyibBAcFRLjeaAV24-7" value="&lt;font style=&quot;font-size: 18px;&quot;&gt;Street&lt;br&gt;Lightning&lt;br&gt;&lt;/font&gt;" style="shape=hexagon;perimeter=hexagonPerimeter2;whiteSpace=wrap;html=1;shadow=0;labelBackgroundColor=none;strokeColor=#82b366;fillColor=#d5e8d4;fontFamily=Helvetica;fontSize=23;align=center;strokeWidth=3;" vertex="1" parent="ugpPyibBAcFRLjeaAV24-1">
                    <mxGeometry x="117.03947368421058" y="260.0657894736841" width="155.9210526315789" height="129.93421052631587" as="geometry"/>
                </mxCell>
                <mxCell id="ugpPyibBAcFRLjeaAV24-8" value="&lt;font style=&quot;font-size: 18px;&quot;&gt;Public&lt;br&gt;Transport&lt;br&gt;&lt;/font&gt;" style="shape=hexagon;perimeter=hexagonPerimeter2;whiteSpace=wrap;html=1;shadow=0;labelBackgroundColor=none;strokeColor=#6c8ebf;fillColor=#dae8fc;fontFamily=Helvetica;fontSize=23;align=center;strokeWidth=3;" vertex="1" parent="ugpPyibBAcFRLjeaAV24-1">
                    <mxGeometry y="194.79934210526324" width="155.9210526315789" height="129.93421052631587" as="geometry"/>
                </mxCell>
                <mxCell id="ugpPyibBAcFRLjeaAV24-9" value="&lt;font style=&quot;font-size: 18px;&quot;&gt;Road&lt;br&gt;Traffic&lt;br&gt;&lt;/font&gt;" style="shape=hexagon;perimeter=hexagonPerimeter2;whiteSpace=wrap;html=1;shadow=0;labelBackgroundColor=none;strokeColor=#D79B00;fillColor=#ffe6cc;fontFamily=Helvetica;fontSize=23;align=center;strokeWidth=3;" vertex="1" parent="ugpPyibBAcFRLjeaAV24-1">
                    <mxGeometry x="5.684341886080802e-14" y="64.76644736842108" width="155.9210526315789" height="129.93421052631587" as="geometry"/>
                </mxCell>
                <mxCell id="ugpPyibBAcFRLjeaAV24-10" value="" style="triangle;whiteSpace=wrap;html=1;shadow=0;labelBackgroundColor=none;strokeColor=none;fillColor=#B85450;fontFamily=Helvetica;fontSize=17;fontColor=#23445d;align=center;rotation=31;gradientColor=none;strokeWidth=3;" vertex="1" parent="ugpPyibBAcFRLjeaAV24-1">
                    <mxGeometry x="252.75000000000003" y="82.00000000000004" width="17.499999999999996" height="36.50000000000002" as="geometry"/>
                </mxCell>
                <mxCell id="ugpPyibBAcFRLjeaAV24-11" value="" style="triangle;whiteSpace=wrap;html=1;shadow=0;labelBackgroundColor=none;strokeColor=none;fillColor=#6C8EBF;fontFamily=Helvetica;fontSize=17;fontColor=#23445d;align=center;rotation=31;gradientColor=none;flipH=1;strokeWidth=3;" vertex="1" parent="ugpPyibBAcFRLjeaAV24-1">
                    <mxGeometry x="119.99999999999997" y="269.99999999999994" width="17.499999999999996" height="36.50000000000002" as="geometry"/>
                </mxCell>
                <mxCell id="ugpPyibBAcFRLjeaAV24-12" value="" style="triangle;whiteSpace=wrap;html=1;shadow=0;labelBackgroundColor=none;strokeColor=#d6b656;fillColor=#D6B656;fontFamily=Helvetica;fontSize=17;align=center;rotation=329;strokeWidth=3;" vertex="1" parent="ugpPyibBAcFRLjeaAV24-1">
                    <mxGeometry x="134.99999999999997" y="74.50000000000004" width="17.499999999999996" height="36.50000000000002" as="geometry"/>
                </mxCell>
                <mxCell id="ugpPyibBAcFRLjeaAV24-13" value="" style="triangle;whiteSpace=wrap;html=1;shadow=0;labelBackgroundColor=none;strokeColor=none;fillColor=#82B366;fontFamily=Helvetica;fontSize=17;fontColor=#23445d;align=center;rotation=329;gradientColor=none;flipH=1;strokeWidth=3;" vertex="1" parent="ugpPyibBAcFRLjeaAV24-1">
                    <mxGeometry x="236.5" y="277.4999999999999" width="17.499999999999996" height="36.50000000000002" as="geometry"/>
                </mxCell>
                <mxCell id="ugpPyibBAcFRLjeaAV24-14" value="" style="triangle;whiteSpace=wrap;html=1;shadow=0;labelBackgroundColor=none;strokeColor=none;fillColor=#9673A6;fontFamily=Helvetica;fontSize=17;fontColor=#23445d;align=center;rotation=90;gradientColor=none;strokeWidth=3;" vertex="1" parent="ugpPyibBAcFRLjeaAV24-1">
                    <mxGeometry x="303.28947368421046" y="184.75000000000006" width="17.499999999999996" height="36.50000000000002" as="geometry"/>
                </mxCell>
                <mxCell id="ugpPyibBAcFRLjeaAV24-15" value="" style="triangle;whiteSpace=wrap;html=1;shadow=0;labelBackgroundColor=none;strokeColor=none;fillColor=#D79B00;fontFamily=Helvetica;fontSize=17;fontColor=#23445d;align=center;rotation=90;gradientColor=none;flipH=1;strokeWidth=3;" vertex="1" parent="ugpPyibBAcFRLjeaAV24-1">
                    <mxGeometry x="69.21052631578948" y="167.75000000000009" width="17.499999999999996" height="36.50000000000002" as="geometry"/>
                </mxCell>
            </root>
        </mxGraphModel>
    </diagram>
</mxfile>